<svg width="128" height="128" viewBox="0 0 128 128" fill="none" xmlns="http://www.w3.org/2000/svg">
<path d="M88 48C88 61.2548 77.2548 72 64 72C50.7452 72 40 61.2548 40 48C40 34.7452 50.7452 24 64 24C77.2548 24 88 34.7452 88 48Z" fill="#000072"/>
<path fill-rule="evenodd" clip-rule="evenodd" d="M0 64C0 28.6538 28.6538 0 64 0C99.3462 0 128 28.6538 128 64C128 99.3462 99.3462 128 64 128C28.6538 128 0 99.3462 0 64ZM64 8C33.0721 8 8 33.0721 8 64C8 77.2274 12.5861 89.3837 20.2549 98.9656C25.9434 89.802 38.4371 80 64 80C89.563 80 102.057 89.802 107.745 98.9656C115.414 89.3837 120 77.2274 120 64C120 33.0721 94.9279 8 64 8Z" fill="#000072"/>
</svg>
